<mxfile host="app.diagrams.net" modified="2024-06-10T10:58:35.217Z" agent="Mozilla/5.0 (Windows NT 10.0; Win64; x64) AppleWebKit/537.36 (KHTML, like Gecko) Chrome/125.0.0.0 Safari/537.36" etag="MOAD9B0Ku0mUO6pDTdPl" version="24.5.2" type="github">
  <diagram name="Page-1" id="Q6TsAraKIrKckSNg6KpT">
    <mxGraphModel dx="724" dy="360" grid="1" gridSize="10" guides="1" tooltips="1" connect="1" arrows="1" fold="1" page="1" pageScale="1" pageWidth="827" pageHeight="1169" math="1" shadow="0">
      <root>
        <mxCell id="0" />
        <mxCell id="1" parent="0" />
        <mxCell id="4utjki7e53Jzn6ldd7qG-1" value="" style="rounded=1;whiteSpace=wrap;html=1;strokeWidth=2;" vertex="1" parent="1">
          <mxGeometry x="150" y="200" width="30" height="120" as="geometry" />
        </mxCell>
        <mxCell id="4utjki7e53Jzn6ldd7qG-2" value="&lt;font style=&quot;font-size: 14px;&quot; face=&quot;Times New Roman&quot;&gt;&lt;b&gt;C&lt;/b&gt;&lt;/font&gt;&lt;div&gt;&lt;font size=&quot;3&quot; face=&quot;ioUluUdTOUpxg9nLghtj&quot;&gt;&lt;b&gt;O&lt;/b&gt;&lt;/font&gt;&lt;/div&gt;&lt;div&gt;&lt;font size=&quot;3&quot; face=&quot;ioUluUdTOUpxg9nLghtj&quot;&gt;&lt;b&gt;R&lt;/b&gt;&lt;/font&gt;&lt;/div&gt;&lt;div&gt;&lt;font size=&quot;3&quot; face=&quot;ioUluUdTOUpxg9nLghtj&quot;&gt;&lt;b&gt;D&lt;/b&gt;&lt;/font&gt;&lt;/div&gt;&lt;div&gt;&lt;font size=&quot;3&quot; face=&quot;ioUluUdTOUpxg9nLghtj&quot;&gt;&lt;b&gt;I&lt;/b&gt;&lt;/font&gt;&lt;/div&gt;&lt;div&gt;&lt;font size=&quot;3&quot; face=&quot;ioUluUdTOUpxg9nLghtj&quot;&gt;&lt;b&gt;C&lt;/b&gt;&lt;/font&gt;&lt;/div&gt;" style="text;html=1;align=center;verticalAlign=middle;whiteSpace=wrap;rounded=0;strokeWidth=2;" vertex="1" parent="1">
          <mxGeometry x="155" y="199.38" width="20" height="121.25" as="geometry" />
        </mxCell>
        <mxCell id="4utjki7e53Jzn6ldd7qG-3" value="" style="endArrow=classic;html=1;rounded=0;strokeWidth=2;" edge="1" parent="1">
          <mxGeometry width="50" height="50" relative="1" as="geometry">
            <mxPoint x="120" y="220" as="sourcePoint" />
            <mxPoint x="150" y="220" as="targetPoint" />
          </mxGeometry>
        </mxCell>
        <mxCell id="4utjki7e53Jzn6ldd7qG-4" value="" style="endArrow=classic;html=1;rounded=0;strokeWidth=2;" edge="1" parent="1">
          <mxGeometry width="50" height="50" relative="1" as="geometry">
            <mxPoint x="120" y="260" as="sourcePoint" />
            <mxPoint x="150" y="259.81" as="targetPoint" />
          </mxGeometry>
        </mxCell>
        <mxCell id="4utjki7e53Jzn6ldd7qG-5" value="" style="endArrow=classic;html=1;rounded=0;strokeWidth=2;" edge="1" parent="1">
          <mxGeometry width="50" height="50" relative="1" as="geometry">
            <mxPoint x="120" y="300" as="sourcePoint" />
            <mxPoint x="150" y="300" as="targetPoint" />
          </mxGeometry>
        </mxCell>
        <mxCell id="4utjki7e53Jzn6ldd7qG-17" value="&lt;font style=&quot;font-size: 14px;&quot; face=&quot;Times New Roman&quot;&gt;&lt;b&gt;\(X\)&lt;/b&gt;&lt;/font&gt;" style="text;html=1;align=center;verticalAlign=middle;whiteSpace=wrap;rounded=0;strokeWidth=2;" vertex="1" parent="1">
          <mxGeometry x="100" y="210" width="20" height="21.25" as="geometry" />
        </mxCell>
        <mxCell id="4utjki7e53Jzn6ldd7qG-18" value="&lt;font style=&quot;font-size: 14px;&quot; face=&quot;Times New Roman&quot;&gt;&lt;b&gt;\(Y\)&lt;/b&gt;&lt;/font&gt;" style="text;html=1;align=center;verticalAlign=middle;whiteSpace=wrap;rounded=0;strokeWidth=2;" vertex="1" parent="1">
          <mxGeometry x="100" y="249.37" width="20" height="21.25" as="geometry" />
        </mxCell>
        <mxCell id="4utjki7e53Jzn6ldd7qG-19" value="&lt;font style=&quot;font-size: 14px;&quot; face=&quot;Times New Roman&quot;&gt;&lt;b&gt;\(0\)&lt;/b&gt;&lt;/font&gt;" style="text;html=1;align=center;verticalAlign=middle;whiteSpace=wrap;rounded=0;strokeWidth=2;" vertex="1" parent="1">
          <mxGeometry x="100" y="288.75" width="20" height="21.25" as="geometry" />
        </mxCell>
        <mxCell id="4utjki7e53Jzn6ldd7qG-20" value="&lt;font style=&quot;font-size: 14px;&quot; face=&quot;Times New Roman&quot;&gt;&lt;b&gt;\(\sqrt{X^2+Y^2}\)&lt;/b&gt;&lt;/font&gt;" style="text;html=1;align=center;verticalAlign=middle;whiteSpace=wrap;rounded=0;strokeWidth=2;" vertex="1" parent="1">
          <mxGeometry x="210" y="205.62" width="80" height="30" as="geometry" />
        </mxCell>
        <mxCell id="4utjki7e53Jzn6ldd7qG-21" value="\(\arctan{(\frac{Y}{X})}\)" style="text;html=1;align=center;verticalAlign=middle;whiteSpace=wrap;rounded=0;strokeWidth=2;" vertex="1" parent="1">
          <mxGeometry x="220" y="284.37" width="60" height="30" as="geometry" />
        </mxCell>
        <mxCell id="4utjki7e53Jzn6ldd7qG-22" value="\(\mu = 1\) , \(d = -sgn(XY)\)&amp;nbsp;" style="text;html=1;align=center;verticalAlign=middle;whiteSpace=wrap;rounded=0;strokeWidth=2;" vertex="1" parent="1">
          <mxGeometry x="130" y="330" width="90" height="30" as="geometry" />
        </mxCell>
        <mxCell id="4utjki7e53Jzn6ldd7qG-23" value="\(\mu = 0\) , \(d = -sgn(XY)\)&amp;nbsp;" style="text;html=1;align=center;verticalAlign=middle;whiteSpace=wrap;rounded=0;strokeWidth=2;" vertex="1" parent="1">
          <mxGeometry x="310" y="330" width="90" height="30" as="geometry" />
        </mxCell>
        <mxCell id="4utjki7e53Jzn6ldd7qG-24" value="&lt;font style=&quot;font-size: 14px;&quot; face=&quot;Times New Roman&quot;&gt;&lt;b&gt;\(\frac{Y}{X}\)&lt;/b&gt;&lt;/font&gt;" style="text;html=1;align=center;verticalAlign=middle;whiteSpace=wrap;rounded=0;strokeWidth=2;" vertex="1" parent="1">
          <mxGeometry x="384" y="284.38" width="60" height="30" as="geometry" />
        </mxCell>
        <mxCell id="4utjki7e53Jzn6ldd7qG-25" value="&lt;font style=&quot;font-size: 14px;&quot; face=&quot;Times New Roman&quot;&gt;&lt;b&gt;\(0\)&lt;/b&gt;&lt;/font&gt;" style="text;html=1;align=center;verticalAlign=middle;whiteSpace=wrap;rounded=0;strokeWidth=2;" vertex="1" parent="1">
          <mxGeometry x="220" y="249.37" width="20" height="21.25" as="geometry" />
        </mxCell>
        <mxCell id="4utjki7e53Jzn6ldd7qG-30" value="&lt;font style=&quot;font-size: 14px;&quot; face=&quot;Times New Roman&quot;&gt;&lt;b&gt;\(X\)&lt;/b&gt;&lt;/font&gt;" style="text;html=1;align=center;verticalAlign=middle;whiteSpace=wrap;rounded=0;strokeWidth=2;" vertex="1" parent="1">
          <mxGeometry x="404" y="214.37" width="20" height="21.25" as="geometry" />
        </mxCell>
        <mxCell id="4utjki7e53Jzn6ldd7qG-34" value="" style="endArrow=classic;html=1;rounded=0;strokeWidth=2;" edge="1" parent="1">
          <mxGeometry width="50" height="50" relative="1" as="geometry">
            <mxPoint x="180" y="219.8" as="sourcePoint" />
            <mxPoint x="210" y="219.8" as="targetPoint" />
          </mxGeometry>
        </mxCell>
        <mxCell id="4utjki7e53Jzn6ldd7qG-35" value="" style="endArrow=classic;html=1;rounded=0;strokeWidth=2;" edge="1" parent="1">
          <mxGeometry width="50" height="50" relative="1" as="geometry">
            <mxPoint x="180" y="259.8" as="sourcePoint" />
            <mxPoint x="210" y="259.61" as="targetPoint" />
          </mxGeometry>
        </mxCell>
        <mxCell id="4utjki7e53Jzn6ldd7qG-36" value="" style="endArrow=classic;html=1;rounded=0;strokeWidth=2;" edge="1" parent="1">
          <mxGeometry width="50" height="50" relative="1" as="geometry">
            <mxPoint x="180" y="299.8" as="sourcePoint" />
            <mxPoint x="210" y="299.8" as="targetPoint" />
          </mxGeometry>
        </mxCell>
        <mxCell id="4utjki7e53Jzn6ldd7qG-38" value="" style="rounded=1;whiteSpace=wrap;html=1;strokeWidth=2;" vertex="1" parent="1">
          <mxGeometry x="340" y="200" width="30" height="120" as="geometry" />
        </mxCell>
        <mxCell id="4utjki7e53Jzn6ldd7qG-39" value="&lt;font style=&quot;font-size: 14px;&quot; face=&quot;Times New Roman&quot;&gt;&lt;b&gt;C&lt;/b&gt;&lt;/font&gt;&lt;div&gt;&lt;font size=&quot;3&quot; face=&quot;ioUluUdTOUpxg9nLghtj&quot;&gt;&lt;b&gt;O&lt;/b&gt;&lt;/font&gt;&lt;/div&gt;&lt;div&gt;&lt;font size=&quot;3&quot; face=&quot;ioUluUdTOUpxg9nLghtj&quot;&gt;&lt;b&gt;R&lt;/b&gt;&lt;/font&gt;&lt;/div&gt;&lt;div&gt;&lt;font size=&quot;3&quot; face=&quot;ioUluUdTOUpxg9nLghtj&quot;&gt;&lt;b&gt;D&lt;/b&gt;&lt;/font&gt;&lt;/div&gt;&lt;div&gt;&lt;font size=&quot;3&quot; face=&quot;ioUluUdTOUpxg9nLghtj&quot;&gt;&lt;b&gt;I&lt;/b&gt;&lt;/font&gt;&lt;/div&gt;&lt;div&gt;&lt;font size=&quot;3&quot; face=&quot;ioUluUdTOUpxg9nLghtj&quot;&gt;&lt;b&gt;C&lt;/b&gt;&lt;/font&gt;&lt;/div&gt;" style="text;html=1;align=center;verticalAlign=middle;whiteSpace=wrap;rounded=0;strokeWidth=2;" vertex="1" parent="1">
          <mxGeometry x="345" y="199.38" width="20" height="121.25" as="geometry" />
        </mxCell>
        <mxCell id="4utjki7e53Jzn6ldd7qG-40" value="" style="endArrow=classic;html=1;rounded=0;strokeWidth=2;" edge="1" parent="1">
          <mxGeometry width="50" height="50" relative="1" as="geometry">
            <mxPoint x="310" y="220" as="sourcePoint" />
            <mxPoint x="340" y="220" as="targetPoint" />
          </mxGeometry>
        </mxCell>
        <mxCell id="4utjki7e53Jzn6ldd7qG-41" value="" style="endArrow=classic;html=1;rounded=0;strokeWidth=2;" edge="1" parent="1">
          <mxGeometry width="50" height="50" relative="1" as="geometry">
            <mxPoint x="310" y="260" as="sourcePoint" />
            <mxPoint x="340" y="259.81" as="targetPoint" />
          </mxGeometry>
        </mxCell>
        <mxCell id="4utjki7e53Jzn6ldd7qG-42" value="" style="endArrow=classic;html=1;rounded=0;strokeWidth=2;" edge="1" parent="1">
          <mxGeometry width="50" height="50" relative="1" as="geometry">
            <mxPoint x="310" y="300" as="sourcePoint" />
            <mxPoint x="340" y="300" as="targetPoint" />
          </mxGeometry>
        </mxCell>
        <mxCell id="4utjki7e53Jzn6ldd7qG-43" value="&lt;font style=&quot;font-size: 14px;&quot; face=&quot;Times New Roman&quot;&gt;&lt;b&gt;\(X\)&lt;/b&gt;&lt;/font&gt;" style="text;html=1;align=center;verticalAlign=middle;whiteSpace=wrap;rounded=0;strokeWidth=2;" vertex="1" parent="1">
          <mxGeometry x="290" y="210" width="20" height="21.25" as="geometry" />
        </mxCell>
        <mxCell id="4utjki7e53Jzn6ldd7qG-44" value="&lt;font style=&quot;font-size: 14px;&quot; face=&quot;Times New Roman&quot;&gt;&lt;b&gt;\(Y\)&lt;/b&gt;&lt;/font&gt;" style="text;html=1;align=center;verticalAlign=middle;whiteSpace=wrap;rounded=0;strokeWidth=2;" vertex="1" parent="1">
          <mxGeometry x="290" y="249.37" width="20" height="21.25" as="geometry" />
        </mxCell>
        <mxCell id="4utjki7e53Jzn6ldd7qG-45" value="&lt;font style=&quot;font-size: 14px;&quot; face=&quot;Times New Roman&quot;&gt;&lt;b&gt;\(0\)&lt;/b&gt;&lt;/font&gt;" style="text;html=1;align=center;verticalAlign=middle;whiteSpace=wrap;rounded=0;strokeWidth=2;" vertex="1" parent="1">
          <mxGeometry x="290" y="288.75" width="20" height="21.25" as="geometry" />
        </mxCell>
        <mxCell id="4utjki7e53Jzn6ldd7qG-49" value="&lt;font style=&quot;font-size: 14px;&quot; face=&quot;Times New Roman&quot;&gt;&lt;b&gt;\(0\)&lt;/b&gt;&lt;/font&gt;" style="text;html=1;align=center;verticalAlign=middle;whiteSpace=wrap;rounded=0;strokeWidth=2;" vertex="1" parent="1">
          <mxGeometry x="404" y="249.38" width="20" height="21.25" as="geometry" />
        </mxCell>
        <mxCell id="4utjki7e53Jzn6ldd7qG-50" value="" style="endArrow=classic;html=1;rounded=0;strokeWidth=2;" edge="1" parent="1">
          <mxGeometry width="50" height="50" relative="1" as="geometry">
            <mxPoint x="370" y="219.8" as="sourcePoint" />
            <mxPoint x="400" y="219.8" as="targetPoint" />
          </mxGeometry>
        </mxCell>
        <mxCell id="4utjki7e53Jzn6ldd7qG-51" value="" style="endArrow=classic;html=1;rounded=0;strokeWidth=2;" edge="1" parent="1">
          <mxGeometry width="50" height="50" relative="1" as="geometry">
            <mxPoint x="370" y="259.8" as="sourcePoint" />
            <mxPoint x="400" y="259.61" as="targetPoint" />
          </mxGeometry>
        </mxCell>
        <mxCell id="4utjki7e53Jzn6ldd7qG-52" value="" style="endArrow=classic;html=1;rounded=0;strokeWidth=2;" edge="1" parent="1">
          <mxGeometry width="50" height="50" relative="1" as="geometry">
            <mxPoint x="370" y="299.8" as="sourcePoint" />
            <mxPoint x="400" y="299.8" as="targetPoint" />
          </mxGeometry>
        </mxCell>
      </root>
    </mxGraphModel>
  </diagram>
</mxfile>
